<?xml version="1.0" encoding="iso-8859-1"?>
<!DOCTYPE svg PUBLIC "-//W3C//DTD SVG 1.0//EN" "http://www.w3.org/TR/2001/REC-SVG-20010904/DTD/svg10.dtd">
<svg width="1101" height="706" xmlns="http://www.w3.org/2000/svg" xmlns:xlink="http://www.w3.org/1999/xlink">
<g style="stroke:black;fill:lightgreen" transform="translate(30,30)">
<line x1="566" y1="310" x2="566" y2="324" style="stroke:black; stroke-width:1"/>
<line x1="566" y1="324" x2="683" y2="324" style="stroke:black; stroke-width:1"/>
<line x1="566" y1="310" x2="566" y2="296" style="stroke:black; stroke-width:1"/>
<line x1="566" y1="296" x2="683" y2="296" style="stroke:black; stroke-width:1"/>
<line x1="487" y1="331" x2="487" y2="352" style="stroke:black; stroke-width:1"/>
<line x1="487" y1="352" x2="603" y2="352" style="stroke:black; stroke-width:1"/>
<line x1="408" y1="355" x2="408" y2="380" style="stroke:black; stroke-width:1"/>
<line x1="408" y1="380" x2="524" y2="380" style="stroke:black; stroke-width:1"/>
<line x1="478" y1="422" x2="478" y2="436" style="stroke:black; stroke-width:1"/>
<line x1="478" y1="436" x2="594" y2="436" style="stroke:black; stroke-width:1"/>
<line x1="478" y1="422" x2="478" y2="408" style="stroke:black; stroke-width:1"/>
<line x1="478" y1="408" x2="594" y2="408" style="stroke:black; stroke-width:1"/>
<line x1="405" y1="443" x2="405" y2="464" style="stroke:black; stroke-width:1"/>
<line x1="405" y1="464" x2="521" y2="464" style="stroke:black; stroke-width:1"/>
<line x1="819" y1="30" x2="819" y2="44" style="stroke:black; stroke-width:1"/>
<line x1="819" y1="44" x2="935" y2="44" style="stroke:black; stroke-width:1"/>
<line x1="819" y1="30" x2="819" y2="16" style="stroke:black; stroke-width:1"/>
<line x1="819" y1="16" x2="935" y2="16" style="stroke:black; stroke-width:1"/>
<line x1="724" y1="51" x2="724" y2="72" style="stroke:black; stroke-width:1"/>
<line x1="724" y1="72" x2="840" y2="72" style="stroke:black; stroke-width:1"/>
<line x1="648" y1="75" x2="648" y2="100" style="stroke:black; stroke-width:1"/>
<line x1="648" y1="100" x2="765" y2="100" style="stroke:black; stroke-width:1"/>
<line x1="571" y1="102" x2="571" y2="128" style="stroke:black; stroke-width:1"/>
<line x1="571" y1="128" x2="687" y2="128" style="stroke:black; stroke-width:1"/>
<line x1="495" y1="129" x2="495" y2="156" style="stroke:black; stroke-width:1"/>
<line x1="495" y1="156" x2="611" y2="156" style="stroke:black; stroke-width:1"/>
<line x1="495" y1="198" x2="495" y2="212" style="stroke:black; stroke-width:1"/>
<line x1="495" y1="212" x2="611" y2="212" style="stroke:black; stroke-width:1"/>
<line x1="495" y1="198" x2="495" y2="184" style="stroke:black; stroke-width:1"/>
<line x1="495" y1="184" x2="611" y2="184" style="stroke:black; stroke-width:1"/>
<line x1="353" y1="202" x2="353" y2="240" style="stroke:black; stroke-width:1"/>
<line x1="353" y1="240" x2="469" y2="240" style="stroke:black; stroke-width:1"/>
<line x1="305" y1="235" x2="305" y2="268" style="stroke:black; stroke-width:1"/>
<line x1="305" y1="268" x2="421" y2="268" style="stroke:black; stroke-width:1"/>
<line x1="344" y1="562" x2="344" y2="576" style="stroke:black; stroke-width:1"/>
<line x1="344" y1="576" x2="460" y2="576" style="stroke:black; stroke-width:1"/>
<line x1="344" y1="562" x2="344" y2="548" style="stroke:black; stroke-width:1"/>
<line x1="344" y1="548" x2="460" y2="548" style="stroke:black; stroke-width:1"/>
<line x1="344" y1="506" x2="344" y2="520" style="stroke:black; stroke-width:1"/>
<line x1="344" y1="520" x2="460" y2="520" style="stroke:black; stroke-width:1"/>
<line x1="344" y1="506" x2="344" y2="492" style="stroke:black; stroke-width:1"/>
<line x1="344" y1="492" x2="460" y2="492" style="stroke:black; stroke-width:1"/>
<line x1="160" y1="515" x2="160" y2="604" style="stroke:black; stroke-width:1"/>
<line x1="160" y1="604" x2="276" y2="604" style="stroke:black; stroke-width:1"/>
<line x1="112" y1="573" x2="112" y2="632" style="stroke:black; stroke-width:1"/>
<line x1="112" y1="632" x2="228" y2="632" style="stroke:black; stroke-width:1"/>
<line x1="64" y1="617" x2="64" y2="660" style="stroke:black; stroke-width:1"/>
<line x1="64" y1="660" x2="180" y2="660" style="stroke:black; stroke-width:1"/>
<line x1="487" y1="331" x2="487" y2="310" style="stroke:black; stroke-width:1"/>
<line x1="487" y1="310" x2="566" y2="310" style="stroke:black; stroke-width:1"/>
<line x1="408" y1="355" x2="408" y2="331" style="stroke:black; stroke-width:1"/>
<line x1="408" y1="331" x2="487" y2="331" style="stroke:black; stroke-width:1"/>
<line x1="330" y1="399" x2="330" y2="355" style="stroke:black; stroke-width:1"/>
<line x1="330" y1="355" x2="408" y2="355" style="stroke:black; stroke-width:1"/>
<line x1="405" y1="443" x2="405" y2="422" style="stroke:black; stroke-width:1"/>
<line x1="405" y1="422" x2="478" y2="422" style="stroke:black; stroke-width:1"/>
<line x1="330" y1="399" x2="330" y2="443" style="stroke:black; stroke-width:1"/>
<line x1="330" y1="443" x2="405" y2="443" style="stroke:black; stroke-width:1"/>
<line x1="257" y1="317" x2="257" y2="399" style="stroke:black; stroke-width:1"/>
<line x1="257" y1="399" x2="330" y2="399" style="stroke:black; stroke-width:1"/>
<line x1="724" y1="51" x2="724" y2="30" style="stroke:black; stroke-width:1"/>
<line x1="724" y1="30" x2="819" y2="30" style="stroke:black; stroke-width:1"/>
<line x1="648" y1="75" x2="648" y2="51" style="stroke:black; stroke-width:1"/>
<line x1="648" y1="51" x2="724" y2="51" style="stroke:black; stroke-width:1"/>
<line x1="571" y1="102" x2="571" y2="75" style="stroke:black; stroke-width:1"/>
<line x1="571" y1="75" x2="648" y2="75" style="stroke:black; stroke-width:1"/>
<line x1="495" y1="129" x2="495" y2="102" style="stroke:black; stroke-width:1"/>
<line x1="495" y1="102" x2="571" y2="102" style="stroke:black; stroke-width:1"/>
<line x1="427" y1="163" x2="427" y2="129" style="stroke:black; stroke-width:1"/>
<line x1="427" y1="129" x2="495" y2="129" style="stroke:black; stroke-width:1"/>
<line x1="427" y1="163" x2="427" y2="198" style="stroke:black; stroke-width:1"/>
<line x1="427" y1="198" x2="495" y2="198" style="stroke:black; stroke-width:1"/>
<line x1="353" y1="202" x2="353" y2="163" style="stroke:black; stroke-width:1"/>
<line x1="353" y1="163" x2="427" y2="163" style="stroke:black; stroke-width:1"/>
<line x1="305" y1="235" x2="305" y2="202" style="stroke:black; stroke-width:1"/>
<line x1="305" y1="202" x2="353" y2="202" style="stroke:black; stroke-width:1"/>
<line x1="257" y1="317" x2="257" y2="235" style="stroke:black; stroke-width:1"/>
<line x1="257" y1="235" x2="305" y2="235" style="stroke:black; stroke-width:1"/>
<line x1="209" y1="426" x2="209" y2="317" style="stroke:black; stroke-width:1"/>
<line x1="209" y1="317" x2="257" y2="317" style="stroke:black; stroke-width:1"/>
<line x1="270" y1="534" x2="270" y2="562" style="stroke:black; stroke-width:1"/>
<line x1="270" y1="562" x2="344" y2="562" style="stroke:black; stroke-width:1"/>
<line x1="270" y1="534" x2="270" y2="506" style="stroke:black; stroke-width:1"/>
<line x1="270" y1="506" x2="344" y2="506" style="stroke:black; stroke-width:1"/>
<line x1="209" y1="426" x2="209" y2="534" style="stroke:black; stroke-width:1"/>
<line x1="209" y1="534" x2="270" y2="534" style="stroke:black; stroke-width:1"/>
<line x1="160" y1="515" x2="160" y2="426" style="stroke:black; stroke-width:1"/>
<line x1="160" y1="426" x2="209" y2="426" style="stroke:black; stroke-width:1"/>
<line x1="112" y1="573" x2="112" y2="515" style="stroke:black; stroke-width:1"/>
<line x1="112" y1="515" x2="160" y2="515" style="stroke:black; stroke-width:1"/>
<line x1="64" y1="617" x2="64" y2="573" style="stroke:black; stroke-width:1"/>
<line x1="64" y1="573" x2="112" y2="573" style="stroke:black; stroke-width:1"/>
<line x1="16" y1="617" x2="16" y2="617" style="stroke:black; stroke-width:1"/>
<line x1="16" y1="617" x2="64" y2="617" style="stroke:black; stroke-width:1"/>
<text x="20" y="612" font-weight = "10" font-family="verdana" fill="blue" font-size="16">Root</text>
<text x="184" y="665" font-weight = "10" font-family="verdana" fill="blue" font-size="16">Danish_Fjolde</text>
<text x="232" y="637" font-weight = "10" font-family="verdana" fill="blue" font-size="16">Tadzik</text>
<text x="280" y="609" font-weight = "10" font-family="verdana" fill="blue" font-size="16">Danish</text>
<text x="464" y="581" font-weight = "10" font-family="verdana" fill="blue" font-size="16">Digor_Ossetic</text>
<text x="464" y="553" font-weight = "10" font-family="verdana" fill="blue" font-size="16">Iron_Ossetic</text>
<text x="464" y="525" font-weight = "10" font-family="verdana" fill="blue" font-size="16">Ossetic</text>
<text x="464" y="497" font-weight = "10" font-family="verdana" fill="blue" font-size="16">Greek_Mod</text>
<text x="525" y="469" font-weight = "10" font-family="verdana" fill="blue" font-size="16">Assamese</text>
<text x="598" y="441" font-weight = "10" font-family="verdana" fill="blue" font-size="16">Bihari</text>
<text x="598" y="413" font-weight = "10" font-family="verdana" fill="blue" font-size="16">Swedish</text>
<text x="528" y="385" font-weight = "10" font-family="verdana" fill="blue" font-size="16">Italian</text>
<text x="607" y="357" font-weight = "10" font-family="verdana" fill="blue" font-size="16">Portuguese_St</text>
<text x="687" y="329" font-weight = "10" font-family="verdana" fill="blue" font-size="16">Spanish</text>
<text x="687" y="301" font-weight = "10" font-family="verdana" fill="blue" font-size="16">Catalan</text>
<text x="425" y="273" font-weight = "10" font-family="verdana" fill="blue" font-size="16">Dutch_List</text>
<text x="473" y="245" font-weight = "10" font-family="verdana" fill="blue" font-size="16">Frisian</text>
<text x="615" y="217" font-weight = "10" font-family="verdana" fill="blue" font-size="16">English</text>
<text x="615" y="189" font-weight = "10" font-family="verdana" fill="blue" font-size="16">Stavangersk</text>
<text x="615" y="161" font-weight = "10" font-family="verdana" fill="blue" font-size="16">French</text>
<text x="691" y="133" font-weight = "10" font-family="verdana" fill="blue" font-size="16">Old_Norse</text>
<text x="769" y="105" font-weight = "10" font-family="verdana" fill="blue" font-size="16">Old_Swedish</text>
<text x="844" y="77" font-weight = "10" font-family="verdana" fill="blue" font-size="16">Faroese</text>
<text x="939" y="49" font-weight = "10" font-family="verdana" fill="blue" font-size="16">Icelandic_St</text>
<text x="939" y="21" font-weight = "10" font-family="verdana" fill="blue" font-size="16">Icelandic_St2</text>
</g></svg>